<svg height="128" width="128" xmlns="http://www.w3.org/2000/svg"><rect x="2" y="2" width="124" height="124" rx="14" fill="#363d52" stroke="#212532" stroke-width="4"/><g transform="matrix(.1 0 0 .1 0 0)"><path d="m940 590v-140q0-25-18-43t-43-18h-90l200-200q13-13 13-32v-158q0-23-17-40t-40-17-40 17l-298 298q-16 16-23 40 4 3 7 6 6 6 11 14 6 7 11 17 4 10 6 22 2 11 2 24t-2 24-6 22q-5 10-11 17-5 8-11 14-3 3-7 6 7 24 23 40l298 298q17 17 40 17t40-17 17-40v-158q0-19-13-32l-200-200h90q25 0 43-18t18-43z" fill="#fff"/></g></svg>
